<svg width="24" height="24" viewBox="0 0 24 24" fill="none" xmlns="http://www.w3.org/2000/svg">
<path fill-rule="evenodd" clip-rule="evenodd" d="M2.66667 20C2.66667 20.7333 3.26667 21.3333 4 21.3333H20C20.7333 21.3333 21.3333 20.7333 21.3333 20V13.3333C21.3333 12.6 21.9333 12 22.6667 12C23.4 12 24 12.6 24 13.3333V21.3333C24 22.8 22.8 24 21.3333 24H2.66667C1.2 24 0 22.8 0 21.3333V2.66667C0 1.2 1.18667 0 2.66667 0H10.6667C11.4 0 12 0.6 12 1.33333C12 2.06667 11.4 2.66667 10.6667 2.66667H4C3.26667 2.66667 2.66667 3.26667 2.66667 4V20ZM16.0006 2.66667C15.2673 2.66667 14.6673 2.06667 14.6673 1.33333C14.6673 0.6 15.2673 0 16.0006 0H22.6673C23.4006 0 24.0006 0.6 24.0006 1.33333V8C24.0006 8.73333 23.4006 9.33333 22.6673 9.33333C21.934 9.33333 21.334 8.73333 21.334 8V4.54667L9.16063 16.72C8.64062 17.24 7.80062 17.24 7.28062 16.72C6.76062 16.2 6.76062 15.36 7.28062 14.84L19.454 2.66667H16.0006Z" fill="#FF9649"/>
</svg>
