<svg width="50" height="50" viewBox="0 0 50 50" fill="none" xmlns="http://www.w3.org/2000/svg">
<path d="M19.5592 46.9979L19.5592 31.9874L30.4287 31.9874L30.4287 46.9979C30.4287 48.6491 31.6515 50 33.1461 50L41.2982 50C42.7927 50 44.0155 48.6491 44.0155 46.9979L44.0155 25.9832L48.6351 25.9832C49.8851 25.9832 50.4829 24.272 49.5318 23.3714L26.8146 0.765537C25.782 -0.255178 24.2059 -0.255178 23.1733 0.765537L0.456115 23.3714C-0.467791 24.272 0.102857 25.9832 1.35285 25.9832L5.97237 25.9832L5.97237 46.9979C5.97237 48.6491 7.19519 50 8.68974 50L16.8419 50C18.3364 50 19.5592 48.6491 19.5592 46.9979Z" fill="#2B353E"/>
</svg>
