<svg width="24" height="20" viewBox="0 0 24 20" fill="none" xmlns="http://www.w3.org/2000/svg">
<path fill-rule="evenodd" clip-rule="evenodd" d="M22 2H14L12.59 0.59C12.21 0.21 11.7 0 11.17 0H6C4.9 0 4.01 0.9 4.01 2L4 14C4 15.1 4.9 16 6 16H22C23.1 16 24 15.1 24 14V4C24 2.9 23.1 2 22 2ZM1 4C0.45 4 0 4.45 0 5V9H0.01L0 18C0 19.1 0.9 20 2 20H19C19.55 20 20 19.55 20 19C20 18.45 19.55 18 19 18H3C2.45 18 2 17.55 2 17V5C2 4.45 1.55 4 1 4ZM11.1098 7.51999L7.59982 12.2C7.34982 12.53 7.58982 13 7.99982 12.99H19.9898C20.3998 12.99 20.6398 12.51 20.3798 12.18L17.8898 8.97999C17.6898 8.72999 17.3098 8.71999 17.1098 8.96999L15.0098 11.5L11.9098 7.50999C11.6998 7.24999 11.3098 7.25999 11.1098 7.51999Z" fill="#FF9649"/>
</svg>
