<svg width="24" height="24" viewBox="0 0 24 24" fill="none" xmlns="http://www.w3.org/2000/svg">
<g clip-path="url(#clip0)">
<path d="M23.6797 0.188832C23.4791 0.0259748 23.2151 -0.0305966 22.958 0.020832L7.52939 3.4494C7.13682 3.53683 6.85739 3.88483 6.85739 4.28598V17.846C6.1391 17.4105 5.25453 17.1431 4.28596 17.1431C1.92367 17.1431 0.000244141 18.6808 0.000244141 20.5717C0.000244141 22.4625 1.92367 24.0003 4.28596 24.0003C6.64824 24.0003 8.57167 22.4625 8.57167 20.5717V10.1163L22.286 7.06826V14.4174C21.5677 13.982 20.6831 13.7145 19.7145 13.7145C17.3505 13.7145 15.4288 15.2523 15.4288 17.1431C15.4288 19.034 17.3505 20.5717 19.7145 20.5717C22.0785 20.5717 24.0002 19.034 24.0002 17.1431V0.857403C24.0002 0.596832 23.8837 0.351689 23.6797 0.188832Z" fill="#FF9649"/>
</g>
<defs>
<clipPath id="clip0">
<rect width="24" height="24" fill="white" transform="translate(0.000244141)"/>
</clipPath>
</defs>
</svg>
