<svg width="50" height="50" viewBox="0 0 50 50" fill="none" xmlns="http://www.w3.org/2000/svg">
<path fill-rule="evenodd" clip-rule="evenodd" d="M-1.09278e-06 25C-4.89568e-07 11.2 11.2 4.89568e-07 25 1.09278e-06C38.8 1.696e-06 50 11.2 50 25C50 38.8 38.8 50 25 50C11.2 50 -1.696e-06 38.8 -1.09278e-06 25ZM20.0002 16.2501L20.0002 33.7501C20.0002 34.7751 21.1752 35.3751 22.0002 34.7501L33.6752 26.0001C34.3502 25.5001 34.3502 24.5001 33.6752 24.0001L22.0002 15.2501C21.1752 14.6251 20.0002 15.2251 20.0002 16.2501Z" fill="#FF9649"/>
</svg>
