<svg width="50" height="50" viewBox="0 0 50 50" fill="none" xmlns="http://www.w3.org/2000/svg">
<path fill-rule="evenodd" clip-rule="evenodd" d="M45 0H5C2.225 0 0.025 2.78125 0.025 6.25L0 43.75C0 47.2188 2.225 50 5 50H45C47.775 50 50 47.2188 50 43.75V6.25C50 2.78125 47.775 0 45 0ZM42.5001 45H7.50013C6.12513 45 5.00013 43.125 5.00013 40.8333V20H45.0001V40.8333C45.0001 43.125 43.8751 45 42.5001 45ZM5.00013 9.9999H45.0001V7.4999C45.0001 6.1249 43.8751 4.9999 42.5001 4.9999H7.50013C6.12513 4.9999 5.00013 6.1249 5.00013 7.4999V9.9999Z" fill="#2B353E"/>
</svg>
